M48
; DRILL file KiCad 10.0.0 date 2026-04-01T14:39:41
; FORMAT={-:-/ absolute / metric / decimal}
; #@! TF.CreationDate,2026-04-01T14:39:41+05:00
; #@! TF.GenerationSoftware,Kicad,Pcbnew,10.0.0
; #@! TF.FileFunction,Plated,1,2,PTH
FMAT,2
METRIC
; #@! TA.AperFunction,Plated,PTH,ViaDrill
T1C0.300
; #@! TA.AperFunction,Plated,PTH,ComponentDrill
T2C0.800
; #@! TA.AperFunction,Plated,PTH,ComponentDrill
T3C0.900
; #@! TA.AperFunction,Plated,PTH,ComponentDrill
T4C1.000
%
G90
G05
T1
X141.442Y-117.599
X141.94Y-115.093
X143.86Y-120.302
X145.188Y-115.689
X146.203Y-75.779
X155.047Y-84.74
X157.995Y-69.803
X165.708Y-110.981
X168.721Y-116.515
X172.736Y-104.846
T2
X122.237Y-106.634
X122.237Y-111.681
X123.942Y-100.634
X124.397Y-118.631
X126.897Y-118.631
X128.942Y-100.634
X132.397Y-106.634
X132.397Y-111.681
X139.397Y-111.631
X139.397Y-121.791
X141.937Y-111.631
X141.937Y-121.791
X144.477Y-111.631
X144.477Y-121.791
X147.017Y-111.631
X147.017Y-121.791
X149.557Y-111.631
X149.557Y-121.791
X152.097Y-111.631
X152.097Y-121.791
X154.637Y-111.631
X154.637Y-121.791
X157.177Y-111.631
X157.177Y-121.791
X165.397Y-112.631
X165.397Y-115.171
X165.397Y-117.711
X165.397Y-120.251
X173.017Y-112.631
X173.017Y-115.171
X173.017Y-117.711
X173.017Y-120.251
X184.942Y-114.554
X184.942Y-119.634
X187.482Y-117.094
T3
X128.127Y-76.631
X130.667Y-76.631
X156.262Y-59.41
X158.802Y-59.41
X162.309Y-90.408
X164.397Y-57.631
X164.849Y-90.408
X165.296Y-74.19
X166.937Y-57.631
X167.836Y-74.19
X169.857Y-88.631
X172.397Y-60.631
X172.397Y-88.631
X174.937Y-60.631
X176.397Y-82.631
X178.397Y-67.631
X178.937Y-82.631
X179.213Y-75.631
X180.937Y-67.631
X181.752Y-75.631
T4
X185.402Y-105.634
X187.942Y-105.634
M30
