%TF.GenerationSoftware,KiCad,Pcbnew,10.0.0*%
%TF.CreationDate,2026-04-01T14:39:26+05:00*%
%TF.ProjectId,LED Chaser,4c454420-4368-4617-9365-722e6b696361,rev?*%
%TF.SameCoordinates,Original*%
%TF.FileFunction,Legend,Bot*%
%TF.FilePolarity,Positive*%
%FSLAX46Y46*%
G04 Gerber Fmt 4.6, Leading zero omitted, Abs format (unit mm)*
G04 Created by KiCad (PCBNEW 10.0.0) date 2026-04-01 14:39:26*
%MOMM*%
%LPD*%
G01*
G04 APERTURE LIST*
%ADD10C,0.100000*%
G04 APERTURE END LIST*
D10*
X189923730Y-101139676D02*
X189923730Y-97139676D01*
X189923730Y-99044438D02*
X187638015Y-99044438D01*
X187638015Y-101139676D02*
X187638015Y-97139676D01*
X185923730Y-99996819D02*
X184018968Y-99996819D01*
X186304682Y-101139676D02*
X184971349Y-97139676D01*
X184971349Y-97139676D02*
X183638015Y-101139676D01*
X180018968Y-100758723D02*
X180209444Y-100949200D01*
X180209444Y-100949200D02*
X180780873Y-101139676D01*
X180780873Y-101139676D02*
X181161825Y-101139676D01*
X181161825Y-101139676D02*
X181733254Y-100949200D01*
X181733254Y-100949200D02*
X182114206Y-100568247D01*
X182114206Y-100568247D02*
X182304683Y-100187295D01*
X182304683Y-100187295D02*
X182495159Y-99425390D01*
X182495159Y-99425390D02*
X182495159Y-98853961D01*
X182495159Y-98853961D02*
X182304683Y-98092057D01*
X182304683Y-98092057D02*
X182114206Y-97711104D01*
X182114206Y-97711104D02*
X181733254Y-97330152D01*
X181733254Y-97330152D02*
X181161825Y-97139676D01*
X181161825Y-97139676D02*
X180780873Y-97139676D01*
X180780873Y-97139676D02*
X180209444Y-97330152D01*
X180209444Y-97330152D02*
X180018968Y-97520628D01*
X178304683Y-101139676D02*
X178304683Y-97139676D01*
X176018968Y-101139676D02*
X177733254Y-98853961D01*
X176018968Y-97139676D02*
X178304683Y-99425390D01*
X168971349Y-100758723D02*
X169161825Y-100949200D01*
X169161825Y-100949200D02*
X169733254Y-101139676D01*
X169733254Y-101139676D02*
X170114206Y-101139676D01*
X170114206Y-101139676D02*
X170685635Y-100949200D01*
X170685635Y-100949200D02*
X171066587Y-100568247D01*
X171066587Y-100568247D02*
X171257064Y-100187295D01*
X171257064Y-100187295D02*
X171447540Y-99425390D01*
X171447540Y-99425390D02*
X171447540Y-98853961D01*
X171447540Y-98853961D02*
X171257064Y-98092057D01*
X171257064Y-98092057D02*
X171066587Y-97711104D01*
X171066587Y-97711104D02*
X170685635Y-97330152D01*
X170685635Y-97330152D02*
X170114206Y-97139676D01*
X170114206Y-97139676D02*
X169733254Y-97139676D01*
X169733254Y-97139676D02*
X169161825Y-97330152D01*
X169161825Y-97330152D02*
X168971349Y-97520628D01*
X165352302Y-101139676D02*
X167257064Y-101139676D01*
X167257064Y-101139676D02*
X167257064Y-97139676D01*
X164018969Y-97139676D02*
X164018969Y-100377771D01*
X164018969Y-100377771D02*
X163828492Y-100758723D01*
X163828492Y-100758723D02*
X163638016Y-100949200D01*
X163638016Y-100949200D02*
X163257064Y-101139676D01*
X163257064Y-101139676D02*
X162495159Y-101139676D01*
X162495159Y-101139676D02*
X162114207Y-100949200D01*
X162114207Y-100949200D02*
X161923730Y-100758723D01*
X161923730Y-100758723D02*
X161733254Y-100377771D01*
X161733254Y-100377771D02*
X161733254Y-97139676D01*
X158495159Y-99044438D02*
X157923731Y-99234914D01*
X157923731Y-99234914D02*
X157733254Y-99425390D01*
X157733254Y-99425390D02*
X157542778Y-99806342D01*
X157542778Y-99806342D02*
X157542778Y-100377771D01*
X157542778Y-100377771D02*
X157733254Y-100758723D01*
X157733254Y-100758723D02*
X157923731Y-100949200D01*
X157923731Y-100949200D02*
X158304683Y-101139676D01*
X158304683Y-101139676D02*
X159828493Y-101139676D01*
X159828493Y-101139676D02*
X159828493Y-97139676D01*
X159828493Y-97139676D02*
X158495159Y-97139676D01*
X158495159Y-97139676D02*
X158114207Y-97330152D01*
X158114207Y-97330152D02*
X157923731Y-97520628D01*
X157923731Y-97520628D02*
X157733254Y-97901580D01*
X157733254Y-97901580D02*
X157733254Y-98282533D01*
X157733254Y-98282533D02*
X157923731Y-98663485D01*
X157923731Y-98663485D02*
X158114207Y-98853961D01*
X158114207Y-98853961D02*
X158495159Y-99044438D01*
X158495159Y-99044438D02*
X159828493Y-99044438D01*
M02*
