%TF.GenerationSoftware,KiCad,Pcbnew,10.0.0*%
%TF.CreationDate,2026-04-01T14:39:25+05:00*%
%TF.ProjectId,LED Chaser,4c454420-4368-4617-9365-722e6b696361,rev?*%
%TF.SameCoordinates,Original*%
%TF.FileFunction,Copper,L1,Top*%
%TF.FilePolarity,Positive*%
%FSLAX46Y46*%
G04 Gerber Fmt 4.6, Leading zero omitted, Abs format (unit mm)*
G04 Created by KiCad (PCBNEW 10.0.0) date 2026-04-01 14:39:25*
%MOMM*%
%LPD*%
G01*
G04 APERTURE LIST*
G04 Aperture macros list*
%AMRoundRect*
0 Rectangle with rounded corners*
0 $1 Rounding radius*
0 $2 $3 $4 $5 $6 $7 $8 $9 X,Y pos of 4 corners*
0 Add a 4 corners polygon primitive as box body*
4,1,4,$2,$3,$4,$5,$6,$7,$8,$9,$2,$3,0*
0 Add four circle primitives for the rounded corners*
1,1,$1+$1,$2,$3*
1,1,$1+$1,$4,$5*
1,1,$1+$1,$6,$7*
1,1,$1+$1,$8,$9*
0 Add four rect primitives between the rounded corners*
20,1,$1+$1,$2,$3,$4,$5,0*
20,1,$1+$1,$4,$5,$6,$7,0*
20,1,$1+$1,$6,$7,$8,$9,0*
20,1,$1+$1,$8,$9,$2,$3,0*%
G04 Aperture macros list end*
%TA.AperFunction,ComponentPad*%
%ADD10C,1.600000*%
%TD*%
%TA.AperFunction,ComponentPad*%
%ADD11RoundRect,0.250000X0.550000X-0.550000X0.550000X0.550000X-0.550000X0.550000X-0.550000X-0.550000X0*%
%TD*%
%TA.AperFunction,ComponentPad*%
%ADD12R,1.800000X1.800000*%
%TD*%
%TA.AperFunction,ComponentPad*%
%ADD13C,1.800000*%
%TD*%
%TA.AperFunction,ComponentPad*%
%ADD14C,1.440000*%
%TD*%
%TA.AperFunction,ComponentPad*%
%ADD15RoundRect,0.250000X-0.550000X-0.550000X0.550000X-0.550000X0.550000X0.550000X-0.550000X0.550000X0*%
%TD*%
%TA.AperFunction,ComponentPad*%
%ADD16R,1.700000X1.700000*%
%TD*%
%TA.AperFunction,ComponentPad*%
%ADD17C,1.700000*%
%TD*%
%TA.AperFunction,ViaPad*%
%ADD18C,0.600000*%
%TD*%
%TA.AperFunction,Conductor*%
%ADD19C,0.200000*%
%TD*%
G04 APERTURE END LIST*
D10*
%TO.P,U2,16,VDD_16*%
%TO.N,+5V*%
X139396700Y-111631000D03*
%TO.P,U2,15,Reset_15*%
%TO.N,GND*%
X141936700Y-111631000D03*
%TO.P,U2,14,CLK_14*%
%TO.N,/OUT*%
X144476700Y-111631000D03*
%TO.P,U2,13,CKEN_13*%
%TO.N,GND*%
X147016700Y-111631000D03*
%TO.P,U2,12,Cout_12*%
%TO.N,unconnected-(U2-Cout-Pad12)*%
X149556700Y-111631000D03*
%TO.P,U2,11,Q9_11*%
%TO.N,Net-(D10-A)*%
X152096700Y-111631000D03*
%TO.P,U2,10,Q4_10*%
%TO.N,Net-(D5-A)*%
X154636700Y-111631000D03*
%TO.P,U2,9,Q8_9*%
%TO.N,Net-(D9-A)*%
X157176700Y-111631000D03*
%TO.P,U2,8,VSS_8*%
%TO.N,GND*%
X157176700Y-121791000D03*
%TO.P,U2,7,Q3_7*%
%TO.N,Net-(D4-A)*%
X154636700Y-121791000D03*
%TO.P,U2,6,Q7_6*%
%TO.N,Net-(D8-A)*%
X152096700Y-121791000D03*
%TO.P,U2,5,Q6_5*%
%TO.N,Net-(D7-A)*%
X149556700Y-121791000D03*
%TO.P,U2,4,Q2_4*%
%TO.N,Net-(D3-A)*%
X147016700Y-121791000D03*
%TO.P,U2,3,Q0_3*%
%TO.N,Net-(D1-A)*%
X144476700Y-121791000D03*
%TO.P,U2,2,Q1_2*%
%TO.N,Net-(D2-A)*%
X141936700Y-121791000D03*
D11*
%TO.P,U2,1,Q5_1*%
%TO.N,Net-(D6-A)*%
X139396700Y-121791000D03*
%TD*%
D12*
%TO.P,D1,1,K_1*%
%TO.N,Net-(D1-K)*%
X128126700Y-76631000D03*
D13*
%TO.P,D1,2,A_2*%
%TO.N,Net-(D1-A)*%
X130666700Y-76631000D03*
%TD*%
D12*
%TO.P,D3,1,K_1*%
%TO.N,Net-(D1-K)*%
X164396700Y-57631000D03*
D13*
%TO.P,D3,2,A_2*%
%TO.N,Net-(D3-A)*%
X166936700Y-57631000D03*
%TD*%
D12*
%TO.P,D4,1,K_1*%
%TO.N,Net-(D1-K)*%
X172396700Y-60631000D03*
D13*
%TO.P,D4,2,A_2*%
%TO.N,Net-(D4-A)*%
X174936700Y-60631000D03*
%TD*%
%TO.P,D6,2,A_2*%
%TO.N,Net-(D6-A)*%
X181752500Y-75631000D03*
D12*
%TO.P,D6,1,K_1*%
%TO.N,Net-(D1-K)*%
X179212500Y-75631000D03*
%TD*%
%TO.P,D7,1,K_1*%
%TO.N,Net-(D1-K)*%
X176396700Y-82631000D03*
D13*
%TO.P,D7,2,A_2*%
%TO.N,Net-(D7-A)*%
X178936700Y-82631000D03*
%TD*%
%TO.P,D8,2,A_2*%
%TO.N,Net-(D8-A)*%
X172396700Y-88631000D03*
D12*
%TO.P,D8,1,K_1*%
%TO.N,Net-(D1-K)*%
X169856700Y-88631000D03*
%TD*%
%TO.P,D9,1,K_1*%
%TO.N,Net-(D1-K)*%
X162308600Y-90408100D03*
D13*
%TO.P,D9,2,A_2*%
%TO.N,Net-(D9-A)*%
X164848600Y-90408100D03*
%TD*%
D12*
%TO.P,D10,1,K_1*%
%TO.N,Net-(D1-K)*%
X165296200Y-74189800D03*
D13*
%TO.P,D10,2,A_2*%
%TO.N,Net-(D10-A)*%
X167836200Y-74189800D03*
%TD*%
D14*
%TO.P,RV1,3,3_3*%
%TO.N,/TR*%
X184941900Y-114554400D03*
%TO.P,RV1,2,2_2*%
%TO.N,Net-(U1-DISCH)*%
X187481900Y-117094400D03*
%TO.P,RV1,1,1_1*%
X184941900Y-119634400D03*
%TD*%
D10*
%TO.P,C1,2*%
%TO.N,GND*%
X126896700Y-118631000D03*
D15*
%TO.P,C1,1*%
%TO.N,/TR*%
X124396700Y-118631000D03*
%TD*%
D10*
%TO.P,R2,1*%
%TO.N,Net-(D1-K)*%
X122236700Y-111681000D03*
%TO.P,R2,2*%
%TO.N,unconnected-(R2-Pad2)*%
X132396700Y-111681000D03*
%TD*%
%TO.P,R1,1*%
%TO.N,+5V*%
X122236700Y-106634400D03*
%TO.P,R1,2*%
%TO.N,Net-(U1-DISCH)*%
X132396700Y-106634400D03*
%TD*%
D16*
%TO.P,J1,1,Pin_1_1*%
%TO.N,+5V*%
X187941900Y-105634400D03*
D17*
%TO.P,J1,2,Pin_2_2*%
%TO.N,GND*%
X185401900Y-105634400D03*
%TD*%
D10*
%TO.P,C2,1*%
%TO.N,GND*%
X123941900Y-100634400D03*
%TO.P,C2,2*%
%TO.N,Net-(U1-CONT)*%
X128941900Y-100634400D03*
%TD*%
D13*
%TO.P,D5,2,A_2*%
%TO.N,Net-(D5-A)*%
X180936700Y-67631000D03*
D12*
%TO.P,D5,1,K_1*%
%TO.N,Net-(D1-K)*%
X178396700Y-67631000D03*
%TD*%
%TO.P,D2,1,K_1*%
%TO.N,Net-(D1-K)*%
X156262500Y-59409900D03*
D13*
%TO.P,D2,2,A_2*%
%TO.N,Net-(D2-A)*%
X158802500Y-59409900D03*
%TD*%
D15*
%TO.P,U1,1,GND_1*%
%TO.N,GND*%
X165396700Y-112631000D03*
D10*
%TO.P,U1,2,TRIG_2*%
%TO.N,/TR*%
X165396700Y-115171000D03*
%TO.P,U1,3,OUT_3*%
%TO.N,/OUT*%
X165396700Y-117711000D03*
%TO.P,U1,4,~{RST}_4*%
%TO.N,+5V*%
X165396700Y-120251000D03*
%TO.P,U1,5,CONT_5*%
%TO.N,Net-(U1-CONT)*%
X173016700Y-120251000D03*
%TO.P,U1,6,THRES_6*%
%TO.N,/TR*%
X173016700Y-117711000D03*
%TO.P,U1,7,DISCH_7*%
%TO.N,Net-(U1-DISCH)*%
X173016700Y-115171000D03*
%TO.P,U1,8,VCC_8*%
%TO.N,+5V*%
X173016700Y-112631000D03*
%TD*%
D18*
%TO.N,Net-(D10-A)*%
X165708100Y-110981500D03*
%TO.N,Net-(U1-CONT)*%
X172736000Y-104846300D03*
%TO.N,+5V*%
X141442300Y-117599200D03*
%TO.N,/OUT*%
X145187900Y-115689400D03*
%TO.N,Net-(D5-A)*%
X157995500Y-69803100D03*
%TO.N,GND*%
X141940300Y-115093000D03*
%TO.N,Net-(D8-A)*%
X168720600Y-116514600D03*
%TO.N,Net-(D7-A)*%
X155047400Y-84740100D03*
%TO.N,Net-(D6-A)*%
X146203100Y-75779500D03*
X143860000Y-120301700D03*
%TD*%
%TO.N,Net-(D10-A)*%
D19*
X165220600Y-110494000D02*
X165708100Y-110981500D01*
X165708100Y-110981500D02*
X165220600Y-110494000D01*
X165220600Y-110494000D02*
X165708100Y-110981500D01*
%TO.N,Net-(D1-K)*%
X176397000Y-82631000D02*
X175857000Y-82631000D01*
X178397000Y-67631000D02*
X178121000Y-67631000D01*
X121999000Y-111681000D02*
X121920000Y-111760000D01*
X122237000Y-111681000D02*
X121999000Y-111681000D01*
X156262500Y-59409900D02*
X157464200Y-59409900D01*
X163134900Y-57631000D02*
X164396700Y-57631000D01*
X158299300Y-58199300D02*
X163134900Y-58199300D01*
X157464200Y-59034400D02*
X158299300Y-58199300D01*
X157464200Y-59409900D02*
X157464200Y-59034400D01*
X163134900Y-57631000D02*
X163134900Y-58199300D01*
X165124500Y-60631000D02*
X172396700Y-60631000D01*
X163134900Y-58641400D02*
X165124500Y-60631000D01*
X163134900Y-58199300D02*
X163134900Y-58641400D01*
X128126700Y-76631000D02*
X129328400Y-76631000D01*
X179212500Y-75631000D02*
X179212000Y-75631000D01*
X163510300Y-90032600D02*
X163510300Y-90408100D01*
X164911900Y-88631000D02*
X163510300Y-90032600D01*
X169856700Y-88631000D02*
X164911900Y-88631000D01*
X162308600Y-90408100D02*
X163510300Y-90408100D01*
X131394100Y-74189800D02*
X165296200Y-74189800D01*
X129328400Y-76255500D02*
X131394100Y-74189800D01*
X129328400Y-76631000D02*
X129328400Y-76255500D01*
X179212000Y-75631000D02*
X179212000Y-76052700D01*
X179212000Y-76052700D02*
X179212000Y-76057500D01*
%TO.N,Net-(U1-DISCH)*%
X171781100Y-113935400D02*
X173016700Y-115171000D01*
X142667100Y-113935400D02*
X171781100Y-113935400D01*
X140835000Y-112103300D02*
X142667100Y-113935400D01*
X140835000Y-111443300D02*
X140835000Y-112103300D01*
X136026100Y-106634400D02*
X140835000Y-111443300D01*
X132396700Y-106634400D02*
X136026100Y-106634400D01*
X187481900Y-115567400D02*
X187481900Y-117094400D01*
X185418500Y-113504000D02*
X187481900Y-115567400D01*
X174683700Y-113504000D02*
X185418500Y-113504000D01*
X173016700Y-115171000D02*
X174683700Y-113504000D01*
%TO.N,Net-(U1-CONT)*%
X168524100Y-100634400D02*
X128941900Y-100634400D01*
X172736000Y-104846300D02*
X168524100Y-100634400D01*
X172736000Y-104846300D02*
X169329000Y-101439300D01*
X169329000Y-101439300D02*
X172736000Y-104846300D01*
%TO.N,/TR*%
X176173300Y-114554400D02*
X173016700Y-117711000D01*
X184941900Y-114554400D02*
X176173300Y-114554400D01*
X170476700Y-115171000D02*
X165396700Y-115171000D01*
X173016700Y-117711000D02*
X170476700Y-115171000D01*
X125549700Y-119784000D02*
X124396700Y-118631000D01*
X138100200Y-119784000D02*
X125549700Y-119784000D01*
X142796400Y-115087800D02*
X138100200Y-119784000D01*
X142796400Y-115087700D02*
X142796400Y-115087800D01*
X165313400Y-115087700D02*
X142796400Y-115087700D01*
X165396700Y-115171000D02*
X165313400Y-115087700D01*
%TO.N,+5V*%
X187941900Y-105634400D02*
X186790200Y-105634400D01*
X186790200Y-105922300D02*
X186790200Y-105634400D01*
X180081500Y-112631000D02*
X186790200Y-105922300D01*
X173016700Y-112631000D02*
X180081500Y-112631000D01*
X137872100Y-110106400D02*
X139396700Y-111631000D01*
X125708700Y-110106400D02*
X137872100Y-110106400D01*
X122236700Y-106634400D02*
X125708700Y-110106400D01*
X146983200Y-117599200D02*
X141442300Y-117599200D01*
X150826700Y-121442700D02*
X146983200Y-117599200D01*
X150826700Y-122083100D02*
X150826700Y-121442700D01*
X151638100Y-122894500D02*
X150826700Y-122083100D01*
X162753200Y-122894500D02*
X151638100Y-122894500D01*
X165396700Y-120251000D02*
X162753200Y-122894500D01*
%TO.N,/OUT*%
X163375100Y-115689400D02*
X165396700Y-117711000D01*
X145187900Y-115689400D02*
X163375100Y-115689400D01*
X145187900Y-115689400D02*
X144476700Y-115689400D01*
X144476700Y-115689400D02*
X145187900Y-115689400D01*
%TO.N,Net-(D10-A)*%
X153233700Y-110494000D02*
X165220600Y-110494000D01*
X152096700Y-111631000D02*
X153233700Y-110494000D01*
%TO.N,Net-(D5-A)*%
X178764600Y-69803100D02*
X157995500Y-69803100D01*
X180936700Y-67631000D02*
X178764600Y-69803100D01*
%TO.N,GND*%
X172393300Y-105634400D02*
X165396700Y-112631000D01*
X185401900Y-105634400D02*
X172393300Y-105634400D01*
X145900700Y-110515000D02*
X147016700Y-111631000D01*
X143052700Y-110515000D02*
X145900700Y-110515000D01*
X141936700Y-111631000D02*
X143052700Y-110515000D01*
X130434700Y-115093000D02*
X126896700Y-118631000D01*
X141940300Y-115093000D02*
X130434700Y-115093000D01*
X141940300Y-115093000D02*
X141936700Y-115089400D01*
X141936700Y-115089400D02*
X141940300Y-115093000D01*
X148162400Y-112776700D02*
X147016700Y-111631000D01*
X165251000Y-112776700D02*
X148162400Y-112776700D01*
X165396700Y-112631000D02*
X165251000Y-112776700D01*
%TO.N,Net-(D8-A)*%
X154906700Y-118981000D02*
X152096700Y-121791000D01*
X166254200Y-118981000D02*
X154906700Y-118981000D01*
X168720600Y-116514600D02*
X166254200Y-118981000D01*
%TO.N,Net-(D7-A)*%
X176827600Y-84740100D02*
X155047400Y-84740100D01*
X178936700Y-82631000D02*
X176827600Y-84740100D01*
%TO.N,Net-(D6-A)*%
X140886000Y-120301700D02*
X143860000Y-120301700D01*
X139396700Y-121791000D02*
X140886000Y-120301700D01*
X147256300Y-76832700D02*
X146203100Y-75779500D01*
X180550800Y-76832700D02*
X147256300Y-76832700D01*
X181752500Y-75631000D02*
X180550800Y-76832700D01*
X143860000Y-120301700D02*
X143370000Y-119811700D01*
X143370000Y-119811700D02*
X143860000Y-120301700D01*
%TO.N,Net-(D1-K)*%
X166497900Y-74189800D02*
X166497900Y-74565300D01*
X166497900Y-74565300D02*
X167985300Y-76052700D01*
X165296200Y-74189800D02*
X166497900Y-74189800D01*
X167985300Y-76052700D02*
X179212000Y-76052700D01*
%TD*%
M02*
